<svg width="223" height="422" viewBox="0 0 223 422" fill="none" xmlns="http://www.w3.org/2000/svg">
<path d="M160.617 421.166C209.236 421.166 248.651 398.774 248.651 371.154C248.651 343.533 209.236 321.142 160.617 321.142C111.997 321.142 72.5828 343.533 72.5828 371.154C72.5828 398.774 111.997 421.166 160.617 421.166Z" fill="#3B2C7F" stroke="#242328" stroke-width="3" stroke-miterlimit="10" stroke-linecap="round" stroke-linejoin="round"/>
<path d="M160.617 421.166C112.468 421.166 73.3014 399.219 72.5828 372.234V517.952V519.031C72.5828 546.736 112.108 569.043 160.617 569.043C209.484 569.043 248.651 546.736 248.651 519.031V517.952V372.234C247.932 399.219 208.766 421.166 160.617 421.166Z" fill="#5C4FA1" stroke="#242328" stroke-width="3" stroke-miterlimit="10" stroke-linecap="round" stroke-linejoin="round"/>
<path d="M75.0979 383.027C84.4403 361.08 119.295 344.889 160.976 344.889C202.657 344.889 237.152 361.08 246.854 383.027C237.511 404.975 202.657 421.166 161.335 421.166C119.295 421.166 84.4403 404.975 75.0979 383.027Z" fill="#987B60" stroke="#242328" stroke-width="3" stroke-miterlimit="10"/>
<path d="M154.868 284.082C154.868 284.082 185.051 265.372 191.159 242.345C196.908 221.117 195.112 179.74 147.681 157.073C137.98 152.396 127.2 149.517 116.42 149.517C109.952 149.517 103.485 150.237 100.251 153.115C91.9863 161.031 85.1592 176.142 86.5965 202.408C91.2677 267.171 124.325 289.839 154.868 284.082Z" fill="#7AC470" stroke="#242328" stroke-width="3" stroke-miterlimit="10" stroke-linecap="round" stroke-linejoin="round"/>
<path d="M155.586 293.436C157.024 303.151 158.461 320.061 159.898 323.659C162.413 330.136 157.383 358.2 160.257 376.19C161.335 383.386 163.132 390.222 164.21 394.18C164.929 395.979 163.132 398.138 160.976 397.778L153.43 396.698C151.274 396.339 149.837 394.899 149.478 392.741C148.759 386.264 148.4 371.872 151.634 351.364C154.149 336.612 145.885 303.87 145.885 298.833C145.885 295.955 148.759 261.054 147.681 231.551C146.963 216.08 146.603 192.693 146.244 190.894C145.885 188.735 146.603 166.427 146.603 144.48C146.603 136.924 145.525 136.204 145.525 130.088C146.244 112.098 144.447 103.463 151.993 106.341C151.993 106.341 153.79 126.13 153.79 130.088C153.79 131.527 153.79 132.606 153.79 133.686C153.79 139.083 153.071 139.443 153.071 145.559C153.43 170.385 153.79 186.216 154.149 191.973C154.508 204.566 157.024 254.578 157.024 254.578C157.024 254.578 154.508 288.759 155.586 293.436Z" fill="#B5DA9B" stroke="#242328" stroke-width="3" stroke-miterlimit="10" stroke-linecap="round" stroke-linejoin="round"/>
<path d="M181.817 204.566C193.315 191.613 217.39 186.576 231.403 164.988C240.386 151.316 241.824 136.924 243.98 116.415C246.135 95.547 245.776 93.3882 249.01 81.5149C252.963 65.324 260.868 57.0486 260.868 57.0486C239.668 61.726 212 74.3189 195.83 90.5098C177.505 108.86 164.569 133.326 164.929 160.311C165.647 193.412 178.942 207.804 181.817 204.566Z" fill="#B5DA9B" stroke="#242328" stroke-width="3" stroke-miterlimit="10" stroke-linecap="round" stroke-linejoin="round"/>
<path d="M127.559 133.686C127.559 136.205 125.403 138.004 122.888 137.644C120.373 137.284 113.546 137.284 106.718 134.406C91.6269 127.57 76.176 114.617 78.6913 76.8381C81.5658 36.1808 57.4913 18.1909 70.7862 2C70.7862 2 70.7862 2 90.9082 17.1115C116.42 36.1808 123.247 51.6522 125.762 59.9275C128.637 69.6421 130.434 80.436 129.715 101.664C129.356 117.855 127.559 129.728 127.559 133.686Z" fill="#B5DA9B" stroke="#242328" stroke-width="3" stroke-miterlimit="10" stroke-linecap="round" stroke-linejoin="round"/>
<path d="M173.193 320.061C173.193 320.061 181.817 274.007 219.186 265.372C249.369 258.176 284.583 259.615 296.8 265.372C309.017 271.129 310.095 279.404 315.844 283.722C315.844 283.722 287.098 272.928 254.04 283.722C220.983 294.516 189.003 325.818 173.193 320.061Z" fill="#7AC470" stroke="#242328" stroke-width="3" stroke-miterlimit="10" stroke-linecap="round" stroke-linejoin="round"/>
<path d="M171.037 356.761C171.037 356.761 167.803 344.168 180.38 336.972C187.566 333.015 210.203 325.099 240.027 341.29C269.491 357.841 270.21 366.836 270.21 366.836C270.21 366.836 256.197 360.359 238.949 364.317C223.139 367.915 213.797 357.841 192.956 355.322C180.739 353.883 175.349 355.322 171.037 356.761Z" fill="#B5DA9B" stroke="#242328" stroke-width="3" stroke-miterlimit="10" stroke-linecap="round" stroke-linejoin="round"/>
<path d="M141.932 268.611C157.024 268.611 163.132 264.653 167.444 261.055C175.708 253.859 175.349 240.907 167.085 233.711C134.027 204.927 33.4167 223.636 42.0405 220.758C51.3829 217.88 77.6134 238.028 77.6134 238.028C103.125 260.696 132.23 268.251 141.932 268.611Z" fill="#B5DA9B" stroke="#242328" stroke-width="3" stroke-miterlimit="10" stroke-linecap="round" stroke-linejoin="round"/>
<path d="M137.261 342.729C137.261 342.729 137.261 345.608 131.152 344.169C121.451 342.01 105.641 326.898 74.3795 341.29C56.0541 349.925 48.8676 349.566 32.6981 347.767C15.81 345.968 2.15576 359.28 2.15576 359.28C2.15576 359.28 16.888 316.464 36.6507 310.707C61.8032 303.152 81.9253 281.564 118.576 310.707C118.576 310.707 127.918 318.983 132.59 325.099C136.902 330.856 137.261 342.729 137.261 342.729Z" fill="#7AC470" stroke="#242328" stroke-width="3" stroke-miterlimit="10" stroke-linecap="round" stroke-linejoin="round"/>
<path d="M136.542 343.809C136.542 343.809 149.478 349.206 149.478 367.555" stroke="#242328" stroke-width="3" stroke-miterlimit="10" stroke-linecap="round" stroke-linejoin="round"/>
<path d="M171.037 356.761C171.037 356.761 168.162 369.714 160.976 375.831L171.037 356.761Z" fill="#2FB566"/>
<path d="M171.037 356.761C171.037 356.761 168.162 369.714 160.976 375.831" stroke="#242328" stroke-width="3" stroke-miterlimit="10" stroke-linecap="round" stroke-linejoin="round"/>
<path d="M64.6779 218.599C64.6779 218.599 56.7728 217.16 44.5558 209.964C38.4474 206.726 32.3389 203.128 28.7457 201.329C27.6677 200.609 25.8711 201.329 25.8711 202.768C22.9965 220.398 41.6813 221.118 41.6813 221.118C42.0406 221.118 48.5084 220.398 63.2406 218.959L64.6779 218.599Z" fill="#B5DA9B" stroke="#242328" stroke-width="3" stroke-miterlimit="10" stroke-linecap="round" stroke-linejoin="round"/>
<path d="M146.244 202.407C138.339 196.65 133.668 184.417 131.152 171.824C127.2 153.475 127.559 134.405 127.559 134.405" stroke="#242328" stroke-width="3" stroke-miterlimit="10" stroke-linecap="round" stroke-linejoin="round"/>
<path d="M181.817 204.566C179.301 217.159 171.756 225.074 164.21 231.551" stroke="#242328" stroke-width="3" stroke-miterlimit="10" stroke-linecap="round" stroke-linejoin="round"/>
<path d="M173.193 320.062C173.193 320.062 167.803 331.935 160.257 344.888" stroke="#242328" stroke-width="3" stroke-miterlimit="10" stroke-linecap="round" stroke-linejoin="round"/>
</svg>
