<svg width="301" height="256" viewBox="0 0 301 256" fill="none" xmlns="http://www.w3.org/2000/svg">
<path d="M-53.4204 289.769L116.213 191.692L286.422 289.769L116.213 387.846L-53.4204 289.769Z" fill="#FFFBD2" stroke="#242328" stroke-width="3" stroke-miterlimit="10" stroke-linecap="round" stroke-linejoin="round"/>
<path d="M116.212 226.308L-65.5376 121.308L-53.421 100.539L116.212 198.616V226.308Z" fill="#FFFCDF" stroke="#242328" stroke-width="3" stroke-miterlimit="10" stroke-linecap="round" stroke-linejoin="round"/>
<path d="M116.212 226.308L298.539 121.308L286.422 100.539L116.212 198.616V226.308Z" fill="#EAE3B1" stroke="#242328" stroke-width="3" stroke-miterlimit="10" stroke-linecap="round" stroke-linejoin="round"/>
<path d="M-53.4204 100.539L116.213 2.46191L286.422 100.539L116.213 198.616L-53.4204 100.539Z" fill="#FFFBD2" stroke="#242328" stroke-width="3" stroke-miterlimit="10" stroke-linecap="round" stroke-linejoin="round"/>
<path d="M116.212 226.309V359.578L262.189 275.924V142.078L116.212 226.309Z" fill="#987B60" stroke="#242328" stroke-width="3" stroke-miterlimit="10" stroke-linecap="round" stroke-linejoin="round"/>
<path d="M116.211 226.309V359.578L-29.1885 275.924V142.078L116.211 226.309Z" fill="#C2B093" stroke="#242328" stroke-width="3" stroke-miterlimit="10" stroke-linecap="round" stroke-linejoin="round"/>
<path d="M116.212 149.001C163.693 149.001 202.183 127.304 202.183 100.539C202.183 73.7746 163.693 52.0776 116.212 52.0776C68.7322 52.0776 30.2419 73.7746 30.2419 100.539C30.2419 127.304 68.7322 149.001 116.212 149.001Z" fill="#4C4C4E" stroke="#242328" stroke-width="3" stroke-miterlimit="10" stroke-linecap="round" stroke-linejoin="round"/>
<path d="M116.212 108.039C130.87 108.039 142.753 101.323 142.753 93.0391C142.753 84.7548 130.87 78.0391 116.212 78.0391C101.553 78.0391 89.6704 84.7548 89.6704 93.0391C89.6704 101.323 101.553 108.039 116.212 108.039Z" fill="#F58467" stroke="#242328" stroke-width="3" stroke-miterlimit="10" stroke-linecap="round" stroke-linejoin="round"/>
<path d="M139.292 126.5C131.214 128.808 121.405 130.539 111.597 130.539C79.2855 130.539 53.3213 115.539 53.3213 97.6543" stroke="#242328" stroke-width="3" stroke-miterlimit="10" stroke-linecap="round" stroke-linejoin="round"/>
<path d="M81.5923 72.8461L8.31543 30.7307V64.7692" stroke="#242328" stroke-width="3" stroke-miterlimit="10" stroke-linecap="round" stroke-linejoin="round"/>
<path d="M153.716 122.463C153.716 122.463 158.909 120.732 162.371 119.001" stroke="#242328" stroke-width="3" stroke-miterlimit="10" stroke-linecap="round" stroke-linejoin="round"/>
</svg>
