<svg width="246" height="406" viewBox="0 0 246 406" fill="none" xmlns="http://www.w3.org/2000/svg">
<path d="M208.984 258.398C208.984 258.398 234.982 287.41 222.925 357.302" stroke="#242328" stroke-width="3" stroke-miterlimit="10" stroke-linecap="round" stroke-linejoin="round"/>
<path d="M178.842 176.26C187.508 255.195 229.895 297.394 208.984 421.731" stroke="#242328" stroke-width="3" stroke-miterlimit="10" stroke-linecap="round" stroke-linejoin="round"/>
<path d="M175.639 173.999C170.364 170.42 165.466 166.087 161.51 161C148.511 145.552 124.397 109.758 125.339 61.7191C125.339 61.7191 124.209 7.27471 157.93 43.0686C157.93 43.0686 178.653 67.936 187.131 92.0498C205.216 142.35 190.333 156.667 182.421 172.869C180.349 177.39 175.639 173.999 175.639 173.999Z" fill="#93CC82" stroke="#242328" stroke-width="3" stroke-miterlimit="10" stroke-linecap="round" stroke-linejoin="round"/>
<path d="M374.955 99.209L368.173 101.658L366.854 108.817L364.593 103.73C364.593 103.73 362.144 108.628 358.565 113.15C354.609 118.048 325.597 139.336 319.003 143.857C312.409 148.379 306.758 151.581 305.251 156.856C303.743 162.131 307.7 170.797 307.7 170.797C307.7 170.797 306.193 169.478 302.236 164.58C298.28 159.682 299.787 154.972 299.787 154.972C299.787 154.972 290.556 157.986 283.209 170.797C266.631 199.244 247.227 204.33 247.227 204.33C247.227 204.33 245.72 208.098 247.792 216.575C250.806 227.879 259.849 234.849 264.747 238.052C217.085 292.873 218.78 424.557 211.998 469.959H217.085C223.678 425.122 225.374 289.482 266.254 242.008C267.196 240.878 268.138 239.936 269.08 238.994C269.08 238.994 277.746 231.27 280.195 226.937C296.208 199.432 344.436 147.06 351.218 139.524C358 131.989 363.274 125.96 371.94 116.164C380.418 106.368 374.955 99.209 374.955 99.209Z" fill="#2FB566" stroke="#242328" stroke-width="3" stroke-miterlimit="10" stroke-linecap="round" stroke-linejoin="round"/>
<path d="M312.409 46.6478C273.978 60.9654 246.85 87.3399 232.909 102.976C220.852 116.54 220.287 141.219 220.287 152.711C220.287 159.493 220.476 165.71 226.316 172.492C226.316 172.492 227.258 173.81 228.953 174.564C214.07 199.808 220.099 224.299 216.143 294.379C216.143 294.379 203.709 451.307 205.404 469.77H212.186C212.752 456.582 212.186 426.817 213.694 404.964C217.085 360.316 221.606 294.379 221.606 294.379C225.562 224.487 219.534 199.996 234.416 174.752C235.924 174.187 240.633 175.506 246.85 169.666C257.211 160.246 275.108 154.03 285.093 145.364C295.078 136.698 295.266 126.336 295.266 126.336C286.412 129.162 280.76 123.699 280.76 123.699C293.571 125.96 299.222 115.975 301.671 111.265C304.12 106.556 305.251 107.121 307.7 105.048C309.96 103.165 311.656 103.165 313.728 100.339C315.612 97.5129 322.771 89.0354 325.22 83.7605C327.669 78.674 331.248 73.7758 331.248 73.7758C353.478 35.1561 330.683 39.8658 312.409 46.6478Z" fill="#5DBC64" stroke="#242328" stroke-width="3" stroke-miterlimit="10" stroke-linecap="round" stroke-linejoin="round"/>
<path d="M192.217 294.003C182.044 236.168 158.496 174.188 153.032 164.015C154.916 164.58 156.8 164.956 158.496 164.956C170.364 164.391 175.262 155.725 176.204 153.842C180.16 145.176 177.711 142.35 180.725 125.583C184.116 107.498 182.233 104.295 175.262 99.7739C168.292 95.2526 161.133 89.2241 153.597 75.4717C146.627 62.8497 100.472 13.4917 88.98 7.0865C81.2561 2.75356 72.9669 2 72.9669 2C68.4456 5.20261 63.3591 31.7655 85.589 76.0369C91.6175 88.0938 115.92 115.599 122.89 126.337C129.86 136.887 139.845 154.407 145.308 159.682C145.685 160.058 146.25 160.435 146.815 161C198.811 261.035 205.216 469.958 205.216 469.958C211.81 472.407 213.505 469.77 213.505 469.77C212.752 454.134 201.071 343.926 192.217 294.003Z" fill="#2FB566" stroke="#242328" stroke-width="3" stroke-miterlimit="10" stroke-linecap="round" stroke-linejoin="round"/>
<path d="M208.984 258.398C208.984 258.398 218.968 238.805 205.028 220.531C198.811 212.431 190.522 211.489 182.044 200.751C173.002 189.07 168.103 197.925 154.163 193.403C147.192 191.143 141.917 186.245 141.164 187.563C139.657 190.012 139.28 197.925 146.815 203.576C157.365 211.3 158.307 216.01 159.249 218.459C175.074 255.383 204.463 259.151 208.984 258.398Z" fill="#93CC82" stroke="#242328" stroke-width="3" stroke-miterlimit="10" stroke-linecap="round" stroke-linejoin="round"/>
<path d="M216.896 469.958C243.082 410.05 235.17 297.582 269.268 273.845" stroke="#242328" stroke-width="3" stroke-miterlimit="10" stroke-linecap="round" stroke-linejoin="round"/>
<path d="M166.973 358.62C166.973 358.62 179.972 331.68 145.12 304.929C116.108 282.699 80.5024 286.655 80.5024 286.655C89.9219 286.467 115.731 379.343 166.973 358.62Z" fill="#5DBC64" stroke="#242328" stroke-width="3" stroke-miterlimit="10" stroke-linecap="round" stroke-linejoin="round"/>
<path d="M201.825 435.106C192.782 391.211 171.871 362.576 166.973 358.62" stroke="#242328" stroke-width="3" stroke-miterlimit="10" stroke-linecap="round" stroke-linejoin="round"/>
<path d="M261.921 327.16C261.921 327.16 223.678 363.896 216.896 469.959" stroke="#242328" stroke-width="3" stroke-miterlimit="10" stroke-linecap="round" stroke-linejoin="round"/>
<path d="M144.555 269.889C125.527 265.368 96.5156 223.546 85.589 209.793C77.2999 199.244 68.8224 193.592 59.0262 188.317C39.8105 178.144 34.1588 180.781 18.5225 177.956C2.88625 175.13 2.13269 169.29 2.13269 169.29C2.13269 169.29 7.97275 169.478 12.8709 169.29C19.0877 169.101 23.9858 168.536 34.1588 173.246C34.1588 173.246 30.391 166.464 26.0581 164.392C26.0581 164.392 39.2453 163.638 41.506 164.392C41.506 164.392 46.0273 166.464 49.9835 171.739C54.3165 177.767 59.0262 182.289 63.1707 183.419C63.1707 183.419 60.3449 173.999 59.9681 163.638C59.5913 156.102 58.2726 150.828 57.3307 150.074C57.3307 150.074 78.807 156.291 85.9658 161.754C85.9658 161.754 88.7916 165.71 87.6613 174.565C87.6613 174.565 86.3426 182.854 89.1684 185.491C89.1684 185.491 92.5594 178.898 93.1246 173.999C93.8782 167.971 93.1246 165.333 93.1246 165.333C93.1246 165.333 98.5879 170.043 104.428 173.434C110.268 176.825 112.529 178.521 114.036 181.158C115.543 183.796 116.673 186.056 118.18 187.563C119.687 189.071 128.165 192.462 131.744 194.911C137.584 198.867 139.657 206.026 143.613 209.793C163.394 229.009 164.147 274.411 144.555 269.889Z" fill="#5DBC64" stroke="#242328" stroke-width="3" stroke-miterlimit="10" stroke-linecap="round" stroke-linejoin="round"/>
<path d="M152.279 268.571C152.279 268.571 187.696 298.713 205.216 468.075" stroke="#242328" stroke-width="3" stroke-miterlimit="10" stroke-linecap="round" stroke-linejoin="round"/>
</svg>
