<svg width="332" height="643" viewBox="0 0 332 643" fill="none" xmlns="http://www.w3.org/2000/svg">
<path d="M181.382 127.801C181.382 127.801 112.486 123.318 66.0044 81.8656C19.5224 40.4138 -148.759 -133.515 -148.759 -133.515" stroke="#242328" stroke-width="3" stroke-miterlimit="10" stroke-linecap="round" stroke-linejoin="round"/>
<path d="M-50.7954 202.55C-50.7954 202.55 64.6026 109.581 -1.18577 16.8845" stroke="#242328" stroke-width="3" stroke-miterlimit="10" stroke-linecap="round" stroke-linejoin="round"/>
<path d="M85.3004 265.299C70.1857 230.573 64.0328 194.726 73.841 166.441C82.8083 141.237 96.258 109.312 74.1389 88.3076" stroke="#242328" stroke-width="3" stroke-miterlimit="10" stroke-linecap="round" stroke-linejoin="round"/>
<path d="M265.138 -23.1412C265.138 -23.1412 251.964 25.8666 183.922 -15.8631C110 -61.2337 91.5056 -10.8259 43.6162 -5.50682C6.64906 -1.5876 -18.5548 -3.26889 -35.6345 -17.552" stroke="#242328" stroke-width="3" stroke-miterlimit="10" stroke-linecap="round" stroke-linejoin="round"/>
<path d="M209.117 59.1963C209.117 59.1963 129.584 69.8345 109.693 107.639" stroke="#242328" stroke-width="3" stroke-miterlimit="10" stroke-linecap="round" stroke-linejoin="round"/>
<path d="M85.0479 130.594C85.0479 130.594 -3.72711 154.393 -2.62529 234.482" stroke="#242328" stroke-width="3" stroke-miterlimit="10" stroke-linecap="round" stroke-linejoin="round"/>
<path d="M272.677 140.698C275.478 138.458 244.122 94.7692 206.586 137.335C206.586 137.335 231.501 176.823 272.677 140.698Z" fill="#97CB5F" stroke="#242328" stroke-width="3" stroke-miterlimit="10" stroke-linecap="round" stroke-linejoin="round"/>
<path d="M196.508 130.61C196.508 130.61 247.193 148.255 206.015 193.902C206.015 193.902 194.254 189.421 192.579 167.577C190.903 145.733 190.347 129.489 181.105 127.529L196.508 130.61Z" fill="#97CB5F" stroke="#242328" stroke-width="3" stroke-miterlimit="10" stroke-linecap="round" stroke-linejoin="round"/>
<path d="M257.576 1.23622C257.576 1.23622 272.408 43.5225 248.041 60.6039C241.879 65.0843 234.318 66.4842 226.757 65.6438C219.756 64.8034 209.955 63.4028 204.075 59.7621C204.075 59.7621 233.202 47.4415 257.576 1.23622Z" fill="#97CB5F" stroke="#242328" stroke-width="3" stroke-miterlimit="10" stroke-linecap="round" stroke-linejoin="round"/>
<path d="M201.013 -55.3411C201.013 -55.3411 216.695 -52.54 220.331 -32.6567C225.646 -3.81183 193.717 11.8695 193.717 11.8695C193.717 11.8695 179.168 -45.8204 201.013 -55.3411Z" fill="#97CB5F" stroke="#242328" stroke-width="3" stroke-miterlimit="10" stroke-linecap="round" stroke-linejoin="round"/>
<path d="M150.328 -76.3517C150.328 -76.3517 201.287 -29.861 168.798 -16.9799C133.228 -2.69861 150.328 -76.3517 150.328 -76.3517Z" fill="#97CB5F" stroke="#242328" stroke-width="3" stroke-miterlimit="10" stroke-linecap="round" stroke-linejoin="round"/>
<path d="M157.314 32.0275C157.314 32.0275 187.55 68.4338 129.858 86.354C129.858 86.354 105.776 77.3918 157.314 32.0275Z" fill="#97CB5F" stroke="#242328" stroke-width="3" stroke-miterlimit="10" stroke-linecap="round" stroke-linejoin="round"/>
<path d="M50.0586 -6.90982C73.0147 30.0582 110.545 14.9368 110.545 14.9368C105.513 -20.9103 50.0586 -6.90982 50.0586 -6.90982Z" fill="#97CB5F" stroke="#242328" stroke-width="3" stroke-miterlimit="10" stroke-linecap="round" stroke-linejoin="round"/>
<path d="M50.6287 -65.7229C50.6287 -65.7229 69.383 -29.0368 30.1693 6.24672C30.1693 6.24672 19.8125 -14.1966 50.6287 -65.7229Z" fill="#97CB5F" stroke="#242328" stroke-width="3" stroke-miterlimit="10" stroke-linecap="round" stroke-linejoin="round"/>
<path d="M83.0853 146.559C83.0853 146.559 121.454 142.92 128.725 189.97C128.445 189.69 84.1958 189.128 83.0853 146.559Z" fill="#97CB5F" stroke="#242328" stroke-width="3" stroke-miterlimit="10" stroke-linecap="round" stroke-linejoin="round"/>
<path d="M179.712 65.637C179.712 65.637 219.2 66.4787 224.233 98.9654C224.233 98.9654 167.38 106.525 179.712 65.637Z" fill="#97CB5F" stroke="#242328" stroke-width="3" stroke-miterlimit="10" stroke-linecap="round" stroke-linejoin="round"/>
<path d="M93.1551 230.016C93.1551 230.016 110.23 264.463 154.203 242.901C154.203 242.901 142.731 199.492 93.1551 230.016Z" fill="#97CB5F" stroke="#242328" stroke-width="3" stroke-miterlimit="10" stroke-linecap="round" stroke-linejoin="round"/>
<path d="M85.3121 265.298C85.3121 265.298 59.2675 265.017 71.0213 301.424C72.7005 306.465 75.2197 311.786 77.7391 316.547L87.8168 334.471C87.8168 334.471 100.984 312.347 85.3121 265.298Z" fill="#97CB5F" stroke="#242328" stroke-width="3" stroke-miterlimit="10" stroke-linecap="round" stroke-linejoin="round"/>
<path d="M42.7538 189.12C42.7538 189.12 82.2388 202.845 70.1877 240.652C70.1877 240.652 36.5837 227.768 42.7538 189.12Z" fill="#97CB5F" stroke="#242328" stroke-width="3" stroke-miterlimit="10" stroke-linecap="round" stroke-linejoin="round"/>
<path d="M3.54479 198.637C3.54479 198.637 42.4719 202.839 36.86 249.889C37.14 250.169 -0.946126 242.326 3.54479 198.637Z" fill="#97CB5F" stroke="#242328" stroke-width="3" stroke-miterlimit="10" stroke-linecap="round" stroke-linejoin="round"/>
<path d="M-4.29939 233.361C-4.29939 233.361 18.661 246.804 -0.106764 268.367C-18.8745 289.929 -15.5132 286.569 -15.5132 286.569C-15.5132 286.569 -47.9947 272.005 -4.29939 233.361Z" fill="#97CB5F" stroke="#242328" stroke-width="3" stroke-miterlimit="10" stroke-linecap="round" stroke-linejoin="round"/>
<path d="M13.3565 116.581C13.3565 116.581 0.478708 98.6583 -31.7328 128.621C-31.7328 128.621 -38.4556 136.462 -43.2162 136.182C-43.2162 136.182 -8.21862 168.948 13.3565 116.581Z" fill="#97CB5F" stroke="#242328" stroke-width="3" stroke-miterlimit="10" stroke-linecap="round" stroke-linejoin="round"/>
<path d="M48.3548 167.276C48.3548 167.276 50.3233 131.709 4.39178 142.349C4.39178 142.349 20.625 186.039 48.3548 167.276Z" fill="#97CB5F" stroke="#242328" stroke-width="3" stroke-miterlimit="10" stroke-linecap="round" stroke-linejoin="round"/>
<path d="M42.1951 145.432C42.1951 145.432 59.0062 111.266 21.7636 90.2608C21.7636 90.2608 8.03175 130.308 42.1951 145.432Z" fill="#97CB5F" stroke="#242328" stroke-width="3" stroke-miterlimit="10" stroke-linecap="round" stroke-linejoin="round"/>
<path d="M-15.4717 2.60056C-15.4717 2.60056 3.84679 20.8039 -36.4853 49.3663C-36.4854 49.9264 -57.762 21.9216 -15.4717 2.60056Z" fill="#97CB5F" stroke="#242328" stroke-width="3" stroke-miterlimit="10" stroke-linecap="round" stroke-linejoin="round"/>
<path d="M108.022 54.4269C99.8226 62.6238 99.0675 75.1619 106.335 82.4315C113.603 89.701 126.141 88.9492 134.34 80.7523C142.539 72.5553 143.294 60.0173 136.027 52.7477C128.759 45.4782 116.221 46.23 108.022 54.4269Z" fill="#FDB929" stroke="#242328" stroke-width="3" stroke-miterlimit="10" stroke-linecap="round" stroke-linejoin="round"/>
<path d="M72.9935 223.851C64.7944 232.048 64.0392 244.586 71.3068 251.856C78.5744 259.125 91.1127 258.373 99.3118 250.176C107.511 241.979 108.266 229.441 100.998 222.172C93.7309 214.902 81.1926 215.654 72.9935 223.851Z" fill="#FDB929" stroke="#242328" stroke-width="3" stroke-miterlimit="10" stroke-linecap="round" stroke-linejoin="round"/>
</svg>
